<?xml version="1.0" encoding="UTF-8"?>
<!DOCTYPE svg PUBLIC "-//W3C//DTD SVG 1.1//EN" "http://www.w3.org/Graphics/SVG/1.1/DTD/svg11.dtd">
<!-- Creator: CorelDRAW 2020 (64-Bit) -->
<svg xmlns="http://www.w3.org/2000/svg" xml:space="preserve" width="297mm" height="210mm" version="1.1" style="shape-rendering:geometricPrecision; text-rendering:geometricPrecision; image-rendering:optimizeQuality; fill-rule:evenodd; clip-rule:evenodd"
viewBox="0 0 29700 21000"
 xmlns:xlink="http://www.w3.org/1999/xlink"
 xmlns:xodm="http://www.corel.com/coreldraw/odm/2003">
 <defs>
  <style type="text/css">
   <![CDATA[
    .str0 {stroke:#F7E2AB;stroke-width:7.62;stroke-miterlimit:22.9256}
    .fil7 {fill:#F7E2AB}
    .fil0 {fill:#3B5590}
    .fil1 {fill:#007BFF}
    .fil9 {fill:#013B84}
    .fil5 {fill:#1A2E35}
    .fil3 {fill:#61A5FE}
    .fil6 {fill:#77B2FC}
    .fil2 {fill:#D5E5FE}
    .fil8 {fill:#EAEAEA}
    .fil4 {fill:white}
   ]]>
  </style>
 </defs>
 <g id="Layer_x0020_1">
  <metadata id="CorelCorpID_0Corel-Layer"/>
  <path class="fil0" d="M15510.55 7884.22c-112.96,-2.65 -223.26,5.22 -338.41,-1.24 -92.83,-5.2 -223.43,-35.28 -304.23,-20.9 -188.44,33.56 -363.22,-22.57 -516.72,-134.76l30.19 -243.98c337.13,46.35 372.62,150.85 498.85,152.24 131.37,1.43 499.18,-16.34 604.14,-62.84l-47.4 -1098.12c-1.16,-37.79 -6.54,-46.03 -9.86,-77.02 -3.51,-32.8 -1.8,-67.78 -1.66,-100.9l-106.83 -2032.72c-20.75,-54.86 -63.89,-67.81 -125.63,-69.18l-5441.04 3.56c-83.39,25.42 -18.04,337.94 -18.18,508.69l21.62 369.08c10.11,121.73 7.85,255.35 21.22,368.69 14.21,120.37 3.64,251.5 13.33,374.99 8.56,108.94 22.32,249.4 21.42,365.69l78.42 1466.88c-0.1,103.18 6.26,285.01 18.82,373.52 17.27,121.69 13.59,494.83 25.86,650.88 13.04,166.05 23.7,517.81 40.84,638.65 8.78,61.83 3.29,130.46 2.96,193.97l42.91 737.78c14.65,126.96 0.01,240.56 14.37,374.74l54.35 910.17c0.43,310.16 40.45,638.86 43.64,934.81 0.74,68.33 12.36,98.78 11.56,177.2l36.38 745.06c6.81,51.41 8.35,120.77 8.05,188.92 -0.7,157.59 5.08,223.99 166.25,222.61 1281.55,-10.89 2605.32,-0.29 3891.41,-0.29l1356.22 0c96.6,0.13 115.06,11.16 188.93,-22.23 29.59,-78.82 -0.4,-268.16 -0.03,-366.82l-96.98 -1834.21c-15.41,-116.35 -7.26,-256.54 -14.1,-377.09 -4.71,-82.97 -10.92,-43.9 -10.8,-179.33l-47.87 -916.02c-12.52,-89 -18.92,-269.95 -18.83,-373.51l-23.05 -365.83c-2.65,-246.13 -26.71,-493.41 -32.69,-734.16l-37.43 -746.98z"/>
  <path class="fil1" d="M16815.05 8205.64c-18.61,214.5 -75.31,475.8 -108.89,694.88 -35.82,233.64 -72.89,459.93 -106.37,695.01 -65.69,461.25 -148.6,943.85 -193.44,1409.67 -44.26,317.2 -83.78,710.08 -107.93,1033.88 -11.48,153.87 1.22,205.31 28.69,348.99 40.25,210.59 87.4,421.56 135.53,630.96 47.43,206.41 110.3,417.83 152.29,619.24 35.45,110.73 298.77,1080.3 296.64,1116.84 27.06,33.97 192.32,630.91 198.38,655.59l70.65 240.34c76.17,-12.73 459.85,-112.82 502.76,-139.42l-135.25 -1155.51c-49.05,-383.03 -99.6,-759.87 -162.58,-1137.56 -30.54,-183.12 -63.94,-362.79 -102.64,-541.85 -19.25,-88.99 -38.72,-171.93 -62.28,-259.89 -23.23,-86.79 -75.37,-173.92 -48.71,-260.56 50.17,-163.07 100.47,-324.07 153.81,-491.37 33.77,-105.9 124.23,-419.77 168.34,-488.47 31.23,174.31 48.26,369.5 73.79,549.1 26.17,184.08 55.33,369.88 80.12,551.88 141.96,1042.53 234.66,2454.48 290.07,3501.55l542.85 20.16c-7.85,-62.61 35.82,-741.17 42.39,-864.3 42.06,-789.44 85.43,-1946.14 28.89,-2691.97 -44.1,-581.83 -80.35,-1184.48 -62.97,-1777.37 14.87,-506.82 97.07,-1337.37 34.09,-1770.09 -24.84,-85.92 -38.42,-153.12 -68.04,-236.89 -27.97,-79.07 -64.56,-144.32 -92.78,-214.78 -145.7,93.74 -188.52,148.24 -458.27,134.31 -293.41,-15.15 -327.02,-126.6 -414.4,-177.74l-304.53 2.62 -26.44 -175.17 -65.64 -6.39 8.25 184.93 -286.38 -0.62z"/>
  <path class="fil2" d="M8975.67 5211.22l0.82 36.64 215.54 4124.79 12.38 235.73c29.67,430.69 35.45,865.75 62.33,1290.46 27.37,432.47 47.97,864.6 71.4,1305.91 24.93,274.89 29.36,567.41 43.81,848.59 12.5,242.78 41.72,1075.48 67.16,1279.84 16.11,129.37 89.61,215.81 181.78,269.9 130.7,76.69 669.68,41.85 869.99,41.85 1201.77,0 2409.06,11.54 3610.09,-0.28 386.08,9.18 782.79,0.75 1170.05,0.75 211.59,0 343.97,19.31 453.98,-124.29 137.46,-179.4 6.94,-381.84 68.45,-508.37 -289.82,33.54 -715.2,10.07 -1022.67,10.07l-4068.69 0c-324.34,0 -670.69,61.23 -749.19,-262.75 -21.55,-88.88 -97.35,-1781.56 -105.61,-1926.9 -109.37,-1924.09 -186.99,-3878.91 -298.93,-5803 -18.92,-325.46 -35.79,-652.15 -50.16,-978.83 -10.5,-238.24 -67.03,-747.29 -9.06,-944.51 -138.72,27.45 -272.12,-24.82 -396.49,46.53 -90.84,52.12 -158.67,149.4 -167.47,254.89l40.49 802.98z"/>
  <path class="fil3" d="M12344.81 4790.49c-1184.43,154.59 -1750.51,1427.31 -1107.37,2459.11 102.98,165.2 250.64,335.07 387.5,435.41 156.72,114.88 306.13,217.62 530.42,292.5 1233.77,411.92 2323.95,-621.23 2075.06,-1798.22 -187.66,-887.47 -1027.96,-1500.75 -1885.61,-1388.8z"/>
  <path class="fil1" d="M9499.14 4106.82c-57.97,197.22 -1.44,706.27 9.06,944.51 14.37,326.68 31.24,653.37 50.16,978.83 111.94,1924.09 189.56,3878.91 298.93,5803 8.26,145.34 84.06,1838.02 105.61,1926.9 78.5,323.98 424.85,262.75 749.19,262.75l4068.69 0c307.47,0 732.85,23.47 1022.67,-10.07 95.14,-36.26 162.21,-83.89 199.09,-169.06 56.32,-130.08 -7.17,-263.77 25.61,-361.23l-13.51 -80.44 -288.95 -5557.55 -215.14 39.76 37.43 746.98c5.98,240.75 30.04,488.03 32.69,734.16l23.05 365.83c-0.09,103.56 6.31,284.51 18.83,373.51l47.87 916.02c-0.12,135.43 6.09,96.36 10.8,179.33 6.84,120.55 -1.31,260.74 14.1,377.09l96.98 1834.21c-0.37,98.66 29.62,288 0.03,366.82 -73.87,33.39 -92.33,22.36 -188.93,22.23l-1356.22 0c-1286.09,0 -2609.86,-10.6 -3891.41,0.29 -161.17,1.38 -166.95,-65.02 -166.25,-222.61 0.3,-68.15 -1.24,-137.51 -8.05,-188.92l-36.38 -745.06c0.8,-78.42 -10.82,-108.87 -11.56,-177.2 -3.19,-295.95 -43.21,-624.65 -43.64,-934.81l-54.35 -910.17c-14.36,-134.18 0.28,-247.78 -14.37,-374.74l-42.91 -737.78c0.33,-63.51 5.82,-132.14 -2.96,-193.97 -17.14,-120.84 -27.8,-472.6 -40.84,-638.65 -12.27,-156.05 -8.59,-529.19 -25.86,-650.88 -12.56,-88.51 -18.92,-270.34 -18.82,-373.52l-78.42 -1466.88c0.9,-116.29 -12.86,-256.75 -21.42,-365.69 -9.69,-123.49 0.88,-254.62 -13.33,-374.99 -13.37,-113.34 -11.11,-246.96 -21.22,-368.69l-21.62 -369.08c0.14,-170.75 -65.21,-483.27 18.18,-508.69l5441.04 -3.56c61.74,1.37 104.88,14.32 125.63,69.18l106.83 2032.72c-0.14,33.12 -1.85,68.1 1.66,100.9 3.32,30.99 8.7,39.23 9.86,77.02l47.4 1098.12c74.19,-6.21 175.33,-34.76 224.06,-75.66 -9.34,-373.86 -37.8,-755.91 -56.38,-1129.55 -18.61,-373.91 -40.35,-752.04 -57.81,-1126.88 -9.1,-195.4 -25.88,-988.93 -86.97,-1104.53 -77.56,-146.72 -187.24,-187.36 -404.12,-187.16 -1788.08,1.62 -3581.5,-12.32 -5368.39,0.95 -55.3,10.4 -106.48,26.28 -144.37,58.1 -18.72,15.73 -36.69,36.54 -49.61,50.4 -19.78,21.19 -23.35,34.13 -41.64,48.41z"/>
  <path class="fil4" d="M10611.45 9460.85c-113.47,37 -94.42,122.52 -88.1,249.13 5.31,106.51 10.58,217.47 16.13,323.13 17.36,330.4 9.69,324.69 361.6,324.69 274.94,0 4002.55,15.99 4086.7,-7.89 107,-30.36 87.29,-135.53 81.59,-251.74 -33.61,-685.99 19.42,-644.35 -377.52,-644.35 -402.95,0 -4016.28,-13.87 -4080.4,7.03z"/>
  <path class="fil4" d="M10697.42 10966.27c-121.83,37.71 -103.95,110.2 -96.74,244.31 36.09,671.92 -28.7,650.81 367.1,650.8 258.47,0 4028.9,12.81 4092.35,-5.77 101.83,-29.81 93.07,-131.77 87.19,-245.46 -5.64,-109.15 -10.28,-219.18 -16.36,-329.56 -18.17,-330.37 -17.09,-321.22 -350.18,-321.22 -409.43,0.01 -4011.85,-15.22 -4083.36,6.9z"/>
  <path class="fil4" d="M11484.78 7050.84c194.84,-96.87 194.69,-144.19 501.64,-247.16 500.05,-167.75 1114.7,-122.49 1583.93,113.94 86.04,43.36 167.86,94.5 243.53,132.56 107.28,-75.76 148.54,-525.52 126.47,-713.65 -75.27,-641.69 -613.83,-1214.17 -1349.47,-1242.37 -544.21,-20.85 -941.55,291.09 -1124.74,600.47 -112.08,189.29 -187.43,419.3 -181.79,679.91 4.09,188.43 88.91,579.26 200.43,676.3z"/>
  <path class="fil4" d="M15725.69 7844.46l288.95 5557.55 138.22 -0.26 -0.51 -2386.83 254 -9.72c44.84,-465.82 127.75,-948.42 193.44,-1409.67 33.48,-235.08 70.55,-461.37 106.37,-695.01 33.58,-219.08 90.28,-480.38 108.89,-694.88l-57.33 0.08 -16.19 -152.56c22.95,-20 -25.78,-11.12 25.69,-16.62l-145.67 -1062.64c-26.96,16.11 -14.56,21.78 -44.96,28.28l-52.91 -66.82c-40.17,50.35 -112.88,206.1 -150.95,275.22 -52.04,94.53 -103.21,177.32 -162.25,260.06 -139.01,194.81 -203.43,289.26 -484.79,373.82z"/>
  <path class="fil4" d="M9338.14 12204.75c-23.43,-441.31 -44.03,-873.44 -71.4,-1305.91 -26.88,-424.71 -32.66,-859.77 -62.33,-1290.46l-922.58 -3.74 -218.92 1939.76c-11.57,113.81 -26.69,217.32 -34.98,321.78 -8.98,113.17 -32.2,225.89 -33.56,337.69l1343.77 0.88z"/>
  <path class="fil5" d="M11581.96 12574.08c-157.43,16.51 -207.46,134.32 -197.1,290.01 10.31,154.88 -9.65,307.68 79.99,405.73 96.44,105.49 244.52,77.49 414.48,77.49 256.34,0 2355.78,9.71 2456.74,-1.43 152.21,-16.79 195.45,-137.61 186.28,-301.79 -24.67,-442.13 -24.54,-472.41 -497.5,-472.41 -281.47,0 -2309.13,-11.63 -2442.89,2.4z"/>
  <path class="fil4" d="M16028.15 13482.45c-32.78,97.46 30.71,231.15 -25.61,361.23 -36.88,85.17 -103.95,132.8 -199.09,169.06 -61.51,126.53 69.01,328.97 -68.45,508.37 -110.01,143.6 -242.39,124.29 -453.98,124.29 -387.26,0 -783.97,8.43 -1170.05,-0.75l-1.93 751.28c7.09,0.09 2016.07,11.86 2025.58,-6.97 1.93,-3.84 6.62,-1.75 9.76,-3.1 17.5,-51.13 19.51,-1806.29 5.33,-1974.17l-119.51 2.47 -2.05 68.29z"/>
  <path class="fil5" d="M16268.76 6561.03c46.57,40.62 249.47,357.14 254.92,374.33l52.91 66.82c30.4,-6.5 18,-12.17 44.96,-28.28l145.67 1062.64c89,0.14 250.76,20.69 325.96,-15.21l65.64 6.39 26.44 175.17 304.53 -2.62c-21.1,-41.95 -50.24,-76.16 -70.8,-129.04 -63.52,-163.35 -67.97,-381.65 -49.76,-552.59 35.19,-330.2 147.91,-628.62 152.8,-669.06 16.64,-137.58 -267.57,-656.75 -397.83,-827.97 -149.33,-196.3 -179.87,-142.78 -245.6,-179.38 -68.72,4.69 -249.14,34.25 -302.8,59.73 -116.05,55.12 -255.18,295.11 -318.77,414.35 -102.25,191.74 -40.69,104.83 11.73,244.72z"/>
  <path class="fil6" d="M18176.11 5806.91c126.52,258.31 -42.8,777.29 -182.64,925.52l-32.06 -37.44c-75.8,-114.5 65.91,-262.49 94.31,-315.99 -12.52,-1.55 -84.61,-11.49 -95.16,-16.61 -31.96,-15.5 -12.11,-2.6 -25.21,-32 -22.49,-50.47 23.47,-42.1 -119.73,-29.78l-22.02 -48.61 -161.89 -5.14 1.22 65.29 -131.67 26.6c23.6,43.69 109.2,144.84 107.51,200.15 -2.4,79.02 -12.19,166.4 -60.41,224.96 -89.23,-259.67 -217.37,-544.62 -381,-753.22 -56.67,-72.24 -164.8,-166.5 -173.23,-190.41 -20.81,-7.24 -47.58,-17.52 -70.02,-16.34 -53.17,2.81 -41.53,-2.29 -45.51,38.34 65.73,36.6 96.27,-16.92 245.6,179.38 130.26,171.22 414.47,690.39 397.83,827.97 -4.89,40.44 -117.61,338.86 -152.8,669.06 -18.21,170.94 -13.76,389.24 49.76,552.59 20.56,52.88 49.7,87.09 70.8,129.04 87.38,51.14 120.99,162.59 414.4,177.74 269.75,13.93 312.57,-40.57 458.27,-134.31 17.03,-37.5 42.56,-61.13 65.8,-111.34 23.72,-51.27 30.17,-85.53 44.05,-139.44 -4.73,-165.69 9.74,-241.62 -33.4,-407.97 -16.04,-61.84 -36.11,-119.48 -57.08,-176.16 -17.48,-47.23 -62.77,-117.16 -61.16,-162.71l-77.1 -121c-272.82,-487.49 -263.67,-231.52 -111.96,-544.69 33.17,-68.45 62.02,-139.37 83.75,-215.57 88.18,-309.23 13.18,-414.49 26.56,-541.99 -6.97,-23.79 20.53,0.42 -26.1,-33.93 -28.94,5.13 -22.31,1.22 -39.71,18.01z"/>
  <path class="fil1" d="M11484.78 7050.84c34.44,139.75 311.35,390 450.67,479.31 553.56,354.86 1238.99,291.28 1695.69,-193.25 45.49,-48.27 172.02,-204.7 182.74,-286.72 -75.67,-38.06 -157.49,-89.2 -243.53,-132.56 -469.23,-236.43 -1083.88,-281.69 -1583.93,-113.94 -306.95,102.97 -306.8,150.29 -501.64,247.16z"/>
  <path class="fil4" d="M17683.36 15511.62l73.57 -9.78 33.92 245.06 -102.63 26.88 88.47 343.18c7.86,15.84 3.15,8.9 12.34,17.11l49.96 -1.67c18.81,42.88 132.5,220.96 163.32,254.89 4.99,-73.49 21.05,-298.25 5.73,-357.94l-125.76 -0.22 -3.47 -251.25 59.22 1.06c-55.41,-1047.07 -148.11,-2459.02 -290.07,-3501.55 -24.79,-182 -53.95,-367.8 -80.12,-551.88 -25.53,-179.6 -42.56,-374.79 -73.79,-549.1 -44.11,68.7 -134.57,382.57 -168.34,488.47 -53.34,167.3 -103.64,328.3 -153.81,491.37 -26.66,86.64 25.48,173.77 48.71,260.56 23.56,87.96 43.03,170.9 62.28,259.89 38.7,179.06 72.1,358.73 102.64,541.85 62.98,377.69 113.53,754.53 162.58,1137.56l135.25 1155.51z"/>
  <path class="fil5" d="M17080.9 4368.71c23.81,76.5 56.06,172.14 112.19,210.64 200.28,-79.96 261.77,151.58 75.42,290.44 31.25,370.67 188.23,534.3 584.67,462.74 457.29,-132.26 400.96,-520.56 416.31,-562.3 11.21,-30.49 55.42,-51.02 93.13,-105.34 63.56,-91.57 93.59,-160.79 106.12,-289.88 -168.93,63.11 -405.2,-13.51 -532.93,-99.34 -59.31,-39.87 -130.32,-115.47 -153.16,-202.73 -24.65,-94.09 -27.13,-217.26 8.05,-300.48 -166.7,1.33 -354.5,66.02 -472.38,137.43 -126.98,76.92 -221.16,174.76 -244.17,374.73 -55.7,43.8 -20.2,-3.85 -45.54,33.35 36.41,44.63 36.35,-5.16 52.29,50.74z"/>
  <path class="fil4" d="M8520.38 15396.45l3564.62 0c-16.77,-92.05 -92.58,-258.4 -125.74,-351.46l-3437.14 -0.52 -1.74 351.98z"/>
  <path class="fil1" d="M12428.22 5394.36c-292.62,71.6 -512.31,356.17 -399.1,730.59 77.19,255.27 373.64,508.57 733.17,420.77 280,-68.37 506.72,-360.73 399.45,-719.81 -78.66,-263.28 -371.4,-520.16 -733.52,-431.55z"/>
  <path class="fil5" d="M18581.43 3068.49c-26.99,26.64 -85.51,36.75 -174.26,107.05 -167.56,132.7 -260.82,313.7 -326.63,528.62 -94.72,431.07 68.5,478.46 453.41,527.26l28.59 -2.25c224.02,13.4 714.67,-40.75 673.98,-342.84 -3.65,-27.08 -28.41,-94.32 -40.45,-126.12 -19.59,-51.75 -45.59,-73.76 -76.72,-99.82 35.49,-25.05 69.88,-29.36 84.69,-79.08 32.15,-107.97 -65.73,-224.18 -231.79,-262.77 61.82,-95.26 12.46,-176.43 -70.24,-231.76 -126.68,-84.75 -207.61,-16.7 -320.58,-18.29z"/>
  <path class="fil5" d="M11934.93 9115.18l1628.57 0c157.6,0 215.45,-22.7 207.76,-195 -7.18,-161.2 -37.05,-214.45 -202.07,-213.3l-1656.57 0.18c-168.17,-1.19 -202.94,39.14 -192.98,207.11 9.95,168.02 49.72,201.01 215.29,201.01z"/>
  <path class="fil4" d="M16911.57 14755.11c2.13,-36.54 -261.19,-1006.11 -296.64,-1116.84 -77.6,-22.75 -170.13,-9.12 -250.32,-10.88l0.05 1768.88 554.2 -1.4c2.52,-174.41 15.9,-482.95 -7.29,-639.76z"/>
  <path class="fil7 str0" d="M15708.43 7497.08c-48.73,40.9 -149.87,69.45 -224.06,75.66 -104.96,46.5 -472.77,64.27 -604.14,62.84 -126.23,-1.39 -161.72,-105.89 -498.85,-152.24l-30.19 243.98c153.5,112.19 328.28,168.32 516.72,134.76 80.8,-14.38 211.4,15.7 304.23,20.9 115.15,6.46 225.45,-1.41 338.41,1.24l215.14 -39.76c281.36,-84.56 345.78,-179.01 484.79,-373.82 59.04,-82.74 110.21,-165.53 162.25,-260.06 38.07,-69.12 110.78,-224.87 150.95,-275.22 -5.45,-17.19 -208.35,-333.71 -254.92,-374.33 -79.07,171.62 -159.27,348.48 -244.15,512.63 -44.51,86.04 -93.07,164.29 -139.34,238.29 -38.23,61.16 -102.89,172.38 -176.84,185.13z"/>
  <path class="fil5" d="M17433.1 16297.76c-41.16,25.4 -38.2,7.55 -62.4,49.25 -120.31,207.3 -28.55,122.85 -249.42,338.69 -39.31,38.42 -98.43,71.75 -125.44,105.69 -13.41,247.68 341.6,15.23 430.7,-22.73 16.69,34.25 -3.55,130.98 155.02,136.6 92.29,3.27 199.88,-5.46 289.87,-9.07 128.65,-5.15 502.43,19.96 581.52,-2.81 26.3,-70.61 6.53,-125.11 -5.81,-210.95 -22.52,-156.53 -6.57,-197.94 -68.66,-200.12l-329.41 -2.76c-39.75,-19.33 -4.63,11.61 -24.85,-40.83 -8.04,-20.87 -11.54,-29.81 -21.91,-51.43 -30.82,-33.93 -144.51,-212.01 -163.32,-254.89l-49.96 1.67 -355.93 163.69z"/>
  <path class="fil5" d="M16994.13 5820.23c8.43,23.91 116.56,118.17 173.23,190.41 163.63,208.6 291.77,493.55 381,753.22 48.22,-58.56 58.01,-145.94 60.41,-224.96 1.69,-55.31 -83.91,-156.46 -107.51,-200.15l131.67 -26.6 -1.22 -65.29 161.89 5.14 22.02 48.61c143.2,-12.32 97.24,-20.69 119.73,29.78 13.1,29.4 -6.75,16.5 25.21,32 10.55,5.12 82.64,15.06 95.16,16.61 -28.4,53.5 -170.11,201.49 -94.31,315.99l32.06 37.44c139.84,-148.23 309.16,-667.21 182.64,-925.52l-259.67 -16.59c-94.23,5.39 -224.43,-6 -323.15,-8.69 -105.42,-2.88 -204.77,4.59 -308.23,8.08l-290.93 30.52z"/>
  <path class="fil5" d="M18320.67 7246.08c-2.18,-76.88 29.29,-365.21 62.13,-415.59 12.42,27.62 47.47,84.05 81.05,102.47l95.84 -103.07c16.41,-34.47 251.95,-277.04 292.77,-310.18 33.51,-58.13 56.69,-8.92 -0.21,-170.27 -52.98,-150.21 -148.34,-424.36 -289.88,-473.79l-320.45 -52.82c-13.38,127.5 61.62,232.76 -26.56,541.99 -21.73,76.2 -50.58,147.12 -83.75,215.57 -151.71,313.17 -160.86,57.2 111.96,544.69l77.1 121z"/>
  <path class="fil7 str0" d="M18559.69 6829.89c49.92,140.58 151.44,475.04 155.91,634.54 2.8,99.34 -47.03,224.61 -89.51,298.39 -32.75,56.85 -118.53,200.48 -153.78,230.1 -13.88,53.91 -20.33,88.17 -44.05,139.44 -23.24,50.21 -48.77,73.84 -65.8,111.34 28.22,70.46 64.81,135.71 92.78,214.78 29.62,83.77 43.2,150.97 68.04,236.89l50.85 5.71c24.7,-70.02 92.78,-139.39 121.24,-218.23 -30.24,-19 -77.24,-52.98 -105.06,-81.64 -16.21,-16.69 -57.12,-93.88 -68.42,-114.6 78.45,-88.55 133.47,-91.06 309.05,-307.4 83.25,-102.58 180.93,-255.5 213.41,-419.58 57.58,-290.72 -96.36,-797.96 -191.89,-1039.92 -40.82,33.14 -276.36,275.71 -292.77,310.18z"/>
  <path class="fil7" d="M17285.06 5789.71c103.46,-3.49 202.81,-10.96 308.23,-8.08 98.72,2.69 228.92,14.08 323.15,8.69 -27.1,-60.28 -58.16,-119.31 -67.21,-204.78 -9.06,-85.58 -4.53,-167.7 3.95,-253.01 -396.44,71.56 -553.42,-92.07 -584.67,-462.74 186.35,-138.86 124.86,-370.4 -75.42,-290.44 -56.13,-38.5 -88.38,-134.14 -112.19,-210.64 -23.65,33.49 -36.43,83.02 -50.73,130.61l-60.28 -16.95c23.97,66.29 17.59,7.7 18.64,79.75 1.53,106.59 53.07,30.99 -47.25,171.39 -10.6,14.85 -40.17,56.13 -41.64,61.54 36.96,43.21 73.68,15.27 82.26,56.52 18.3,87.97 -25.66,354.47 260.85,495.5 30.93,15.23 55.6,24 89.78,31.9l82.32 15.72c20.03,6.8 14.64,3.91 27.43,12.71 19.29,74.76 27.17,172.2 -4.96,243.95 -49.16,109.75 -98.15,80.03 -152.26,138.36z"/>
  <path class="fil8" d="M18320.67 7246.08c-1.61,45.55 43.68,115.48 61.16,162.71 20.97,56.68 41.04,114.32 57.08,176.16 43.14,166.35 28.67,242.28 33.4,407.97 35.25,-29.62 121.03,-173.25 153.78,-230.1 42.48,-73.78 92.31,-199.05 89.51,-298.39 -4.47,-159.5 -105.99,-493.96 -155.91,-634.54l-95.84 103.07c-33.58,-18.42 -68.63,-74.85 -81.05,-102.47 -32.84,50.38 -64.31,338.71 -62.13,415.59z"/>
  <path class="fil1" d="M17790.7 3772.46c-35.18,83.22 -32.7,206.39 -8.05,300.48 22.84,87.26 93.85,162.86 153.16,202.73 127.73,85.83 364,162.45 532.93,99.34 23.28,-42.52 54.95,-71.7 65.21,-143.59 -384.91,-48.8 -548.13,-96.19 -453.41,-527.26 -135.67,-14.97 -229.97,-26.22 -289.84,68.3z"/>
  <path class="fil5" d="M17683.36 15511.62c-42.91,26.6 -426.59,126.69 -502.76,139.42l-95.71 29.89 77.15 236.03 166.47 -36.62c102.93,-41.51 270.27,-56.81 359.71,-106.56l102.63 -26.88 -33.92 -245.06 -73.57 9.78z"/>
  <path class="fil7" d="M18002.31 16387.29c10.37,21.62 13.87,30.56 21.91,51.43 20.22,52.44 -14.9,21.5 24.85,40.83l329.41 2.76c-2.23,-80.58 1.79,-392.83 21.36,-453.4l-391.8 0.44c15.32,59.69 -0.74,284.45 -5.73,357.94z"/>
  <path class="fil5" d="M18008.04 16029.35l391.8 -0.44 116.12 0.26c42.93,-35.62 41.94,-167.8 48.93,-227.76l-84.01 -2.31 -542.85 -20.16 -59.22 -1.06 3.47 251.25 125.76 0.22z"/>
  <path class="fil7" d="M17328.51 15880.34l104.59 417.42 355.93 -163.69c-9.19,-8.21 -4.48,-1.27 -12.34,-17.11l-88.47 -343.18c-89.44,49.75 -256.78,65.05 -359.71,106.56z"/>
  <path class="fil5" d="M11583.68 11263.94c-202.48,57 -95.55,350.61 97.58,292.86 185.29,-55.42 92.21,-346.27 -97.58,-292.86z"/>
  <path class="fil5" d="M11499.17 9759.78c-195.79,63.98 -81.59,353.24 109.78,291.43 71.65,-23.13 117.46,-111.31 83.27,-198.74 -24.29,-62.15 -97.97,-123.75 -193.05,-92.69z"/>
  <path class="fil5" d="M11966.54 9760.53c-195.76,64.1 -83.4,352 109.44,290.93 70.86,-22.44 117.6,-112.61 83.66,-199.58 -24.36,-62.46 -99.39,-122.03 -193.1,-91.35z"/>
  <path class="fil5" d="M13451.83 11264.31c-206.13,63.42 -90.3,346.39 97.03,292.6 187.39,-53.81 91.31,-350.54 -97.03,-292.6z"/>
  <path class="fil5" d="M12433.44 9760.39c-194.25,64.52 -83.54,351.26 109.49,291.2 72.58,-22.57 118,-112.09 83.81,-199.86 -23.8,-61.13 -100.88,-122.05 -193.3,-91.34z"/>
  <path class="fil5" d="M11116.67 11263.97c-203.35,56.77 -95.66,350.72 97.54,292.8 178.26,-53.46 96.98,-347.11 -97.54,-292.8z"/>
  <path class="fil5" d="M11027.26 9763.81c-43.54,17.93 -61.96,23.6 -82.21,67.52 -17.88,38.78 -18.81,94.2 -0.09,134.49 26.86,57.81 113.53,120.1 205.63,82.32 166.14,-68.16 65.36,-362.02 -123.33,-284.33z"/>
  <path class="fil5" d="M12985.13 11264.55c-207.34,62.99 -88.83,346.84 96.73,292.33 189.65,-55.69 89.02,-348.78 -96.73,-292.33z"/>
  <path class="fil5" d="M12051.45 11264.49c-205.29,58.29 -93.7,348.48 96.64,292.33 185.6,-54.77 92.51,-346.01 -96.64,-292.33z"/>
  <path class="fil5" d="M12518.1 11264.7c-206.53,62.45 -89.63,346.84 96.89,292.17 187.85,-55.07 89.44,-348.51 -96.89,-292.17z"/>
  <path class="fil9" d="M16815.05 8205.64l286.38 0.62 -8.25 -184.93c-75.2,35.9 -236.96,15.35 -325.96,15.21 -51.47,5.5 -2.74,-3.38 -25.69,16.62l16.19 152.56 57.33 -0.08z"/>
 </g>
</svg>
